<?xml version="1.0" encoding="UTF-8" standalone="no"?>
<!-- Created with Inkscape (http://www.inkscape.org/) -->

<svg
   xmlns:dc="http://purl.org/dc/elements/1.1/"
   xmlns:cc="http://creativecommons.org/ns#"
   xmlns:rdf="http://www.w3.org/1999/02/22-rdf-syntax-ns#"
   xmlns:svg="http://www.w3.org/2000/svg"
   xmlns="http://www.w3.org/2000/svg"
   xmlns:sodipodi="http://sodipodi.sourceforge.net/DTD/sodipodi-0.dtd"
   xmlns:inkscape="http://www.inkscape.org/namespaces/inkscape"
   width="640"
   height="400"
   viewBox="0 0 169.33333 105.83333"
   version="1.1"
   id="svg8"
   inkscape:version="0.92.4 (5da689c313, 2019-01-14)"
   sodipodi:docname="dessin.svg"
   inkscape:export-filename="C:\Users\pulkomandy\Downloads\CPC\1Kraftwerk\image.png"
   inkscape:export-xdpi="48"
   inkscape:export-ydpi="48">
  <defs
     id="defs2" />
  <sodipodi:namedview
     id="base"
     pagecolor="#ff0404"
     bordercolor="#666666"
     borderopacity="1.0"
     inkscape:pageopacity="0"
     inkscape:pageshadow="2"
     inkscape:zoom="2.8"
     inkscape:cx="205.4045"
     inkscape:cy="75.220547"
     inkscape:document-units="mm"
     inkscape:current-layer="layer1"
     showgrid="false"
     fit-margin-top="0"
     fit-margin-left="0"
     fit-margin-right="0"
     fit-margin-bottom="0"
     inkscape:snap-others="false"
     inkscape:snap-global="false"
     inkscape:pagecheckerboard="false"
     units="px"
     inkscape:window-width="1920"
     inkscape:window-height="1033"
     inkscape:window-x="-4"
     inkscape:window-y="-4"
     inkscape:window-maximized="1" />
  <metadata
     id="metadata5">
    <rdf:RDF>
      <cc:Work
         rdf:about="">
        <dc:format>image/svg+xml</dc:format>
        <dc:type
           rdf:resource="http://purl.org/dc/dcmitype/StillImage" />
        <dc:title />
      </cc:Work>
    </rdf:RDF>
  </metadata>
  <g
     inkscape:label="Calque 1"
     inkscape:groupmode="layer"
     id="layer1"
     transform="translate(-2.8726232,36.5262)"
     sodipodi:insensitive="true">
    <path
       style="fill:#000000;fill-opacity:1;fill-rule:evenodd;stroke:none;stroke-width:0.5978238px;stroke-linecap:butt;stroke-linejoin:miter;stroke-opacity:1"
       d="m 13.933381,69.291216 2.989118,-2.562106 3.309382,-20.283307 0.106763,-2.989119 -2.02833,-1.708066 1.708068,-6.939031 2.24184,-1.281046 1.814822,-0.427019 -0.960788,-2.775614 0.747279,-2.455344 1.814821,-0.854033 1.921578,1.174298 0.2135,2.455346 -0.747279,2.455347 3.30938,1.494559 2.135086,6.191745 -1.921579,6.405256 -1.708066,-0.106763 0.427017,2.668852 -1.281051,6.084996 0.640525,2.775607 -1.601312,7.899817 0.427016,1.921574 -2.882365,0.427019 0.427016,-4.270172 -0.427016,-13.984802 -3.522891,7.472798 -2.668856,11.102437 z"
       id="path4531"
       inkscape:connector-curvature="0" />
    <path
       style="fill:#000000;fill-opacity:1;fill-rule:evenodd;stroke:none;stroke-width:0.5978238px;stroke-linecap:butt;stroke-linejoin:miter;stroke-opacity:1"
       d="m 63.574106,68.543937 0.960786,-1.067548 -0.320259,-8.540335 0.427019,-1.92158 -0.640527,-4.590433 0.533767,-5.871483 -2.882359,-4.483679 1.281047,-7.04578 3.202632,-2.028331 -0.747281,-2.028332 0.106764,-1.708068 0.747279,-1.067539 1.708066,-0.854038 1.576794,0.830414 0.424332,2.139568 -0.399811,2.04747 3.843154,1.281052 3.629645,6.298498 -0.533773,5.551225 -2.455347,-0.533774 0.74728,-4.270172 -1.921571,-2.135086 -0.640528,2.882365 0.640528,6.405259 -1.60132,9.39437 0.213521,3.522893 -1.494558,5.978237 0.640525,1.387807 -1.494558,0.747279 -1.387807,-0.747279 0.427014,-2.028331 0.74728,-7.152532 -0.427015,-8.753851 -1.281053,5.978237 0.213499,5.230958 -1.067542,6.2985 0.427015,1.387805 -2.98912,0.747279 z"
       id="path4533"
       inkscape:connector-curvature="0"
       sodipodi:nodetypes="ccccccccccccccccccccccccccccccccccccccc" />
    <path
       style="fill:#000000;fill-opacity:1;fill-rule:evenodd;stroke:none;stroke-width:0.5978238px;stroke-linecap:butt;stroke-linejoin:miter;stroke-opacity:1"
       d="m 103.17993,68.010163 0.53378,-1.814826 -0.32027,-6.512004 0.32027,-2.028332 -0.32027,-1.494561 0.64053,-1.708065 -0.32026,-7.686311 1.06754,-2.241838 -0.64053,-3.522887 -1.60131,3.309378 -2.668856,0.42702 0.640526,-1.601312 2.77561,-6.618764 3.52289,-1.601313 -0.85403,-3.522893 0.10675,-0.960785 1.81482,-0.640528 2.34861,0.854033 -0.10675,4.270173 3.20263,1.494558 1.1743,0.960788 v 1.174292 l 2.7756,3.629645 1.70808,0.960794 -4.27017,0.106764 0.32026,-0.427019 -2.13509,-2.455347 -1.17429,2.455347 0.42701,8.647097 -0.85403,4.376924 -0.2135,5.230958 -1.49456,6.084991 1.70807,1.387807 -4.16343,-0.213521 0.74729,-2.028326 1.1743,-9.287624 -0.85403,-5.978238 -1.38782,4.376925 0.42703,4.376924 -1.17431,6.618766 0.85404,2.348591 h -2.77562 z"
       id="path4535"
       inkscape:connector-curvature="0" />
    <path
       style="fill:#000000;fill-opacity:1;fill-rule:evenodd;stroke:none;stroke-width:0.5978238px;stroke-linecap:butt;stroke-linejoin:miter;stroke-opacity:1"
       d="m 150.79233,68.543937 2.66885,-2.562106 -0.85403,-5.551218 1.28106,-3.949913 0.53377,-5.230957 0.96079,-3.949906 0.21349,-3.949905 -0.64053,-4.803946 -1.17429,1.708074 0.32026,3.416133 -0.10675,2.562104 -1.92157,0.106764 0.2135,-2.455345 -1.28105,-3.843157 2.77561,-7.152532 4.59043,-2.135086 -0.42701,-2.348593 1.06753,-2.562107 1.70807,-0.960786 1.60131,1.067546 0.32027,3.095873 -1.3878,2.348592 3.62964,2.028332 1.81482,7.793059 -1.70806,4.056659 -1.60132,1.067545 1.06754,1.174294 -1.38781,8.113324 0.64053,3.416138 -2.34859,7.686305 1.49456,2.135086 -2.24184,0.32026 -2.5621,-1.708067 2.45535,-7.793057 -0.96079,-9.18087 -3.52289,7.579558 -0.10675,7.793055 -1.06755,3.095875 z"
       id="path4537"
       inkscape:connector-curvature="0" />
    <path
       style="fill:#ffffff;fill-opacity:1;fill-rule:evenodd;stroke:none;stroke-width:0.5978238px;stroke-linecap:butt;stroke-linejoin:miter;stroke-opacity:1"
       d="M 16.70899,69.184457 17.776535,46.552558 H 4.4322525 L 4.6457517,43.349932 30.907297,43.029665 v 3.522893 l -11.422704,0.106764 -0.854034,22.73866 z"
       id="path4539"
       inkscape:connector-curvature="0" />
    <path
       style="fill:#ffffff;fill-opacity:1;fill-rule:evenodd;stroke:none;stroke-width:0.5978238px;stroke-linecap:butt;stroke-linejoin:miter;stroke-opacity:1"
       d="M 65.388935,69.344587 66.456479,46.712685 H 53.112197 L 53.325696,43.51006 79.58724,43.189792 v 3.522893 l -11.422703,0.106764 -0.854034,22.738662 z"
       id="path4539-0"
       inkscape:connector-curvature="0" />
    <path
       style="fill:#ffffff;fill-opacity:1;fill-rule:evenodd;stroke:none;stroke-width:0.5978238px;stroke-linecap:butt;stroke-linejoin:miter;stroke-opacity:1"
       d="m 108.09064,69.237833 1.06754,-22.631902 H 95.813899 l 0.213499,-3.202626 26.261552,-0.320267 v 3.522893 l -11.4227,0.106764 -0.85404,22.738662 z"
       id="path4539-4"
       inkscape:connector-curvature="0" />
    <path
       style="fill:#ffffff;fill-opacity:1;fill-rule:evenodd;stroke:none;stroke-width:0.5978238px;stroke-linecap:butt;stroke-linejoin:miter;stroke-opacity:1"
       d="M 157.09084,69.451341 158.15838,46.81944 H 144.8141 l 0.21351,-3.202626 26.26154,-0.320267 v 3.522893 l -11.42271,0.106764 -0.85403,22.738663 z"
       id="path4539-1"
       inkscape:connector-curvature="0" />
  </g>
</svg>
