<?xml version="1.0" encoding="UTF-8" standalone="no"?>
<!-- Created with Inkscape (http://www.inkscape.org/) -->

<svg
   xmlns:dc="http://purl.org/dc/elements/1.1/"
   xmlns:cc="http://creativecommons.org/ns#"
   xmlns:rdf="http://www.w3.org/1999/02/22-rdf-syntax-ns#"
   xmlns:svg="http://www.w3.org/2000/svg"
   xmlns="http://www.w3.org/2000/svg"
   xmlns:sodipodi="http://sodipodi.sourceforge.net/DTD/sodipodi-0.dtd"
   xmlns:inkscape="http://www.inkscape.org/namespaces/inkscape"
   width="640"
   height="400"
   viewBox="0 0 169.33333 105.83333"
   version="1.1"
   id="svg8"
   inkscape:version="0.92.4 (5da689c313, 2019-01-14)"
   sodipodi:docname="dessin.svg"
   inkscape:export-filename="C:\Users\pulkomandy\Downloads\CPC\1Kraftwerk\image.png"
   inkscape:export-xdpi="48"
   inkscape:export-ydpi="48">
  <defs
     id="defs2" />
  <sodipodi:namedview
     id="base"
     pagecolor="#ff0404"
     bordercolor="#666666"
     borderopacity="1.0"
     inkscape:pageopacity="0"
     inkscape:pageshadow="2"
     inkscape:zoom="3.959798"
     inkscape:cx="484.91343"
     inkscape:cy="73.747628"
     inkscape:document-units="mm"
     inkscape:current-layer="layer1"
     showgrid="false"
     fit-margin-top="0"
     fit-margin-left="0"
     fit-margin-right="0"
     fit-margin-bottom="0"
     inkscape:snap-others="false"
     inkscape:snap-global="false"
     inkscape:pagecheckerboard="false"
     units="px"
     inkscape:window-width="1920"
     inkscape:window-height="1033"
     inkscape:window-x="-4"
     inkscape:window-y="-4"
     inkscape:window-maximized="1" />
  <metadata
     id="metadata5">
    <rdf:RDF>
      <cc:Work
         rdf:about="">
        <dc:format>image/svg+xml</dc:format>
        <dc:type
           rdf:resource="http://purl.org/dc/dcmitype/StillImage" />
        <dc:title />
      </cc:Work>
    </rdf:RDF>
  </metadata>
  <g
     inkscape:label="Calque 1"
     inkscape:groupmode="layer"
     id="layer1"
     transform="translate(-2.8726232,36.5262)">
    <path
       style="fill:#000000;fill-opacity:1;fill-rule:evenodd;stroke:none;stroke-width:0.5978238px;stroke-linecap:butt;stroke-linejoin:miter;stroke-opacity:1"
       d="m 13.933381,69.291216 2.989118,-2.562106 3.416145,-23.272426 -2.02833,-1.708066 1.708068,-6.939031 2.24184,-1.281046 1.814822,-0.427019 -0.960788,-2.775614 0.747279,-2.455344 1.814821,-0.854033 1.921578,1.174298 0.2135,2.455346 -0.747279,2.455347 3.30938,1.494559 2.135086,6.191745 -1.921579,6.405256 -1.708066,-0.106763 0.427017,2.668852 -0.640526,8.860603 -1.601312,7.899817 0.427016,2.791542 H 24.03929 l 0.569516,-18.697923 -3.522891,7.472798 -2.668856,11.102437 z"
       id="path4531"
       inkscape:connector-curvature="0"
       sodipodi:nodetypes="cccccccccccccccccccccccccc" />
    <path
       style="fill:#000000;fill-opacity:1;fill-rule:evenodd;stroke:none;stroke-width:0.5978238px;stroke-linecap:butt;stroke-linejoin:miter;stroke-opacity:1"
       d="m 63.574106,69.307133 0.960786,-1.830744 -0.320259,-8.540335 0.320259,-12.383496 -2.882359,-4.483679 1.281047,-7.04578 3.202632,-2.028331 -0.640517,-3.7364 2.455345,-1.921577 1.576794,0.830414 0.02452,4.187038 3.843154,1.281052 3.629645,6.298498 -0.533773,5.551225 -3.629638,-6.939032 -2.882357,28.183124 0.640525,1.387807 -1.494558,0.747279 -0.960793,-2.77561 0.320265,-15.906383 -1.067554,11.209195 -0.640527,7.686305 z"
       id="path4533"
       inkscape:connector-curvature="0"
       sodipodi:nodetypes="ccccccccccccccccccccccc" />
    <path
       style="fill:#000000;fill-opacity:1;fill-rule:evenodd;stroke:none;stroke-width:0.5978238px;stroke-linecap:butt;stroke-linejoin:miter;stroke-opacity:1"
       d="m 102.62054,69.307133 1.09317,-22.541069 -3.20263,-3.629639 2.77561,-6.618764 3.52289,-1.601313 -0.74728,-4.483678 1.81482,-0.640528 2.34861,1.4097 -0.10675,3.714506 3.20263,1.494558 5.65798,6.725519 -4.27017,-0.02304 -1.81483,-2.75256 -1.17429,2.455347 -1.42684,24.374297 1.5875,2.116666 h -4.00381 l 0.32027,-18.270895 -1.38782,4.376925 -1.80781,13.89397 z"
       id="path4535"
       inkscape:connector-curvature="0"
       sodipodi:nodetypes="ccccccccccccccccccccc" />
    <path
       style="fill:#000000;fill-opacity:1;fill-rule:evenodd;stroke:none;stroke-width:0.5978238px;stroke-linecap:butt;stroke-linejoin:miter;stroke-opacity:1"
       d="m 150.79233,68.543937 2.66885,-2.562106 -0.85403,-5.551218 2.77562,-13.130776 0.21349,-3.949905 -0.64053,-4.803946 -1.17429,1.708074 0.32026,3.416133 -1.81482,0.213523 -1.28105,-3.843157 2.77561,-7.152532 4.59043,-2.135086 -0.42701,-2.348593 1.06753,-2.562107 2.7801,0.10676 0.84955,3.095873 -1.3878,2.348592 3.62964,2.028332 1.81482,7.793059 -2.24184,6.298498 -0.74728,11.529462 -2.34859,7.686305 1.49456,2.135086 -2.24184,0.32026 -2.5621,-1.708067 1.49456,-16.973927 -3.52289,7.579558 -0.10675,7.793055 -1.06755,3.095875 z"
       id="path4537"
       inkscape:connector-curvature="0"
       sodipodi:nodetypes="cccccccccccccccccccccccccccccc" />
    <path
       style="fill:#ffffff;fill-opacity:1;fill-rule:evenodd;stroke:none;stroke-width:0.5978238px;stroke-linecap:butt;stroke-linejoin:miter;stroke-opacity:1"
       d="M 16.70899,69.184457 17.776535,46.552558 H 4.4322525 L 4.6457517,43.349932 30.907297,43.029665 v 3.522893 l -11.422704,0.106764 -0.854034,22.73866 z"
       id="path4539"
       inkscape:connector-curvature="0" />
    <path
       style="fill:#ffffff;fill-opacity:1;fill-rule:evenodd;stroke:none;stroke-width:0.5978238px;stroke-linecap:butt;stroke-linejoin:miter;stroke-opacity:1"
       d="M 65.388935,69.344587 66.456479,46.712685 H 53.112197 L 53.325696,43.51006 79.58724,43.189792 v 3.522893 l -11.422703,0.106764 -0.854034,22.738662 z"
       id="path4539-0"
       inkscape:connector-curvature="0" />
    <path
       style="fill:#ffffff;fill-opacity:1;fill-rule:evenodd;stroke:none;stroke-width:0.5978238px;stroke-linecap:butt;stroke-linejoin:miter;stroke-opacity:1"
       d="m 108.09064,69.237833 1.06754,-22.631902 H 95.813899 l 0.213499,-3.202626 26.261552,-0.320267 v 3.522893 l -11.4227,0.106764 -0.85404,22.738662 z"
       id="path4539-4"
       inkscape:connector-curvature="0" />
    <path
       style="fill:#ffffff;fill-opacity:1;fill-rule:evenodd;stroke:none;stroke-width:0.5978238px;stroke-linecap:butt;stroke-linejoin:miter;stroke-opacity:1"
       d="M 157.09084,69.451341 158.15838,46.81944 H 144.8141 l 0.21351,-3.202626 26.26154,-0.320267 v 3.522893 l -11.42271,0.106764 -0.85403,22.738663 z"
       id="path4539-1"
       inkscape:connector-curvature="0" />
  </g>
</svg>
